<?xml version="1.0" standalone="no"?>
<!DOCTYPE svg PUBLIC "-//W3C//DTD SVG 20010904//EN"
 "http://www.w3.org/TR/2001/REC-SVG-20010904/DTD/svg10.dtd">
<svg version="1.0" xmlns="http://www.w3.org/2000/svg"
 width="700.000000pt" height="100.000000pt" viewBox="0 0 700.000000 100.000000"
 preserveAspectRatio="xMidYMid meet">

<g transform="translate(0.000000,100.000000) scale(0.100000,-0.100000)"
fill="#000000" stroke="none">
<path d="M388 984 c-193 -46 -339 -202 -379 -402 -18 -88 -1 -202 46 -300 90
-191 306 -306 513 -274 223 35 389 201 424 424 52 338 -271 633 -604 552z
m154 -264 c44 -13 93 -52 113 -91 18 -33 20 -121 4 -152 -48 -92 -158 -127
-246 -78 -154 87 -98 312 82 330 6 0 27 -4 47 -9z m108 -440 l0 -40 -155 0
-155 0 0 40 0 40 155 0 155 0 0 -40z"/>
<path d="M429 621 c-23 -23 -29 -38 -29 -71 0 -53 42 -100 90 -100 85 0 133
76 95 150 -31 59 -107 69 -156 21z"/>
<path d="M1380 777 c-182 -51 -271 -244 -192 -412 52 -109 146 -169 267 -169
154 -1 273 107 292 264 l6 50 -142 0 -141 0 0 -48 0 -48 61 4 c73 5 89 -6 65
-43 -60 -91 -209 -88 -278 6 -62 84 -31 222 61 269 70 35 156 20 198 -34 19
-23 28 -26 87 -26 36 0 66 4 66 8 0 4 -13 29 -29 54 -28 44 -86 91 -142 115
-43 19 -131 23 -179 10z"/>
<path d="M2080 777 c-219 -62 -296 -318 -145 -485 178 -198 510 -68 509 198 0
189 -188 336 -364 287z m154 -141 c74 -43 108 -145 72 -215 -22 -42 -81 -89
-121 -97 -60 -11 -106 4 -151 50 -84 84 -66 202 41 267 43 27 109 24 159 -5z"/>
<path d="M2780 777 c-135 -38 -222 -150 -222 -287 0 -164 130 -295 291 -294
264 2 395 319 208 502 -75 73 -186 105 -277 79z m154 -141 c74 -43 108 -145
72 -215 -22 -42 -81 -89 -121 -97 -60 -11 -106 4 -151 50 -84 84 -66 202 41
267 43 27 109 24 159 -5z"/>
<path d="M5360 777 c-134 -37 -220 -150 -220 -287 0 -146 97 -262 242 -291
107 -22 240 35 299 129 42 67 40 72 -36 72 -56 0 -66 -3 -80 -23 -22 -34 -87
-67 -132 -67 -52 0 -102 28 -137 78 -25 35 -29 51 -29 102 0 51 4 67 29 102
35 49 85 78 137 78 45 0 112 -32 127 -60 9 -17 21 -20 80 -20 39 0 70 4 70 8
0 19 -61 101 -91 125 -73 55 -178 77 -259 54z"/>
<path d="M6551 780 c-117 -25 -182 -137 -136 -233 22 -46 67 -72 175 -103 52
-15 105 -34 118 -42 28 -18 29 -62 3 -86 -22 -20 -88 -32 -126 -22 -33 8 -75
52 -75 77 0 17 -8 19 -65 19 -60 0 -65 -2 -65 -22 0 -38 40 -105 78 -131 107
-74 310 -55 374 35 30 42 36 124 13 172 -22 47 -75 77 -185 106 -103 26 -130
42 -130 75 0 56 117 80 166 34 13 -12 24 -28 24 -36 0 -9 17 -13 60 -13 67 0
71 6 46 63 -36 84 -157 131 -275 107z"/>
<path d="M3280 490 l0 -292 118 4 c95 3 127 8 170 27 213 95 218 411 8 518
-45 23 -66 27 -173 31 l-123 4 0 -292z m257 142 c40 -28 65 -84 65 -142 0 -98
-55 -160 -149 -168 l-53 -4 0 172 0 172 53 -4 c33 -3 65 -13 84 -26z"/>
<path d="M3860 489 l0 -291 148 4 c126 3 152 6 182 23 48 29 74 78 74 141 0
60 -20 96 -70 126 l-35 21 20 21 c67 71 48 177 -39 223 -38 20 -58 23 -162 23
l-118 0 0 -291z m217 169 c47 -44 16 -109 -53 -112 l-39 -1 -3 54 c-2 29 -1
60 2 67 8 22 67 17 93 -8z m40 -240 c30 -28 30 -68 -1 -97 -19 -18 -33 -22
-77 -19 l-54 3 -3 54 c-4 76 -1 81 60 81 39 0 57 -5 75 -22z"/>
<path d="M4370 491 l0 -291 65 0 64 0 3 102 3 101 68 -101 67 -102 80 0 80 0
-80 101 c-44 56 -80 104 -80 108 0 3 17 15 37 26 52 28 83 86 83 155 0 67 -22
113 -73 154 -39 31 -40 31 -178 34 l-139 4 0 -291z m247 167 c29 -33 35 -57
22 -95 -13 -41 -34 -53 -93 -53 l-46 0 0 85 0 85 48 0 c38 0 53 -5 69 -22z"/>
<path d="M4890 490 l0 -290 60 0 60 0 0 290 0 290 -60 0 -60 0 0 -290z"/>
<path d="M5840 490 l0 -290 60 0 60 0 0 126 c0 100 3 124 13 116 6 -6 48 -63
92 -126 l80 -115 83 -1 c45 0 82 2 82 4 0 2 -49 65 -110 141 -60 76 -110 141
-110 145 0 4 47 69 105 144 58 75 105 139 105 141 0 3 -35 5 -77 5 l-78 -1
-90 -127 -90 -127 -3 128 -3 127 -59 0 -60 0 0 -290z"/>
</g>
</svg>
